<svg aria-hidden="true" style="position: absolute; width: 0; height: 0; overflow: hidden;" version="1.1" xmlns="http://www.w3.org/2000/svg" xmlns:xlink="http://www.w3.org/1999/xlink">
<defs>
<symbol id="icon-tvitter" viewBox="0 0 32 32">
<path fill="#0d5c63" style="fill: var(--color1, #0d5c63)" d="M30.805 0.524c-0.175-0.182-0.397-0.307-0.639-0.362s-0.494-0.037-0.726 0.051l-28.601 10.816c-0.247 0.097-0.459 0.27-0.609 0.496s-0.23 0.494-0.23 0.768c0 0.274 0.080 0.542 0.23 0.768s0.362 0.399 0.609 0.496l12.48 5.192 4.992 12.98c0.094 0.245 0.255 0.457 0.462 0.608s0.454 0.236 0.708 0.244c0.263-0.006 0.518-0.094 0.731-0.253s0.376-0.382 0.465-0.639l10.4-29.745c0.089-0.239 0.11-0.5 0.062-0.751s-0.164-0.483-0.335-0.669zM19.482 27.443l-3.627-9.464 6.227-6.476-1.833-1.906-6.279 6.53-9.048-3.826 22.79-8.558-8.229 23.701z"></path>
</symbol>
<symbol id="icon-phone" viewBox="0 0 32 32">
<path fill="#0d5c63" style="fill: var(--color1, #0d5c63)" d="M25.302 17.331c-0.156-0.157-0.342-0.281-0.546-0.365s-0.423-0.128-0.644-0.128c-0.221 0-0.44 0.044-0.644 0.128s-0.39 0.209-0.546 0.365l-2.684 2.684c-1.244-0.37-3.566-1.212-5.038-2.684s-2.313-3.793-2.684-5.038l2.684-2.684c0.156-0.156 0.281-0.342 0.365-0.546s0.128-0.423 0.128-0.644c0-0.221-0.044-0.44-0.128-0.644s-0.209-0.39-0.365-0.546l-6.735-6.735c-0.156-0.156-0.342-0.281-0.546-0.365s-0.423-0.128-0.644-0.128c-0.221 0-0.44 0.044-0.644 0.128s-0.39 0.209-0.546 0.365l-4.566 4.566c-0.64 0.64-1 1.519-0.987 2.416 0.039 2.398 0.673 10.725 7.237 17.289s14.891 7.196 17.29 7.237h0.047c0.889 0 1.729-0.35 2.366-0.987l4.566-4.566c0.157-0.156 0.281-0.342 0.365-0.546s0.128-0.423 0.128-0.644c0-0.221-0.044-0.44-0.128-0.644s-0.209-0.39-0.365-0.546l-6.735-6.737zM25.088 28.632c-2.101-0.035-9.291-0.599-14.94-6.25-5.667-5.667-6.216-12.882-6.25-14.941l3.376-3.376 4.354 4.354-2.177 2.177c-0.198 0.198-0.343 0.442-0.423 0.71s-0.092 0.552-0.035 0.826c0.040 0.194 1.029 4.785 3.824 7.58s7.387 3.783 7.58 3.824c0.274 0.059 0.558 0.048 0.826-0.032s0.512-0.226 0.709-0.424l2.179-2.177 4.354 4.354-3.378 3.376z"></path>
</symbol>
<symbol id="icon-mapp" viewBox="0 0 27 32">
<path fill="#252b42" style="fill: var(--color2, #252b42)" d="M0.041 0h26.707v32h-26.707v-32z"></path>
<path fill="#fff" style="fill: var(--color3, #fff)" d="M12.824 9.934c0.651 0 1.181-0.511 1.181-1.14s-0.53-1.14-1.181-1.14c-0.651 0-1.181 0.511-1.181 1.14s0.53 1.14 1.181 1.14zM12.824 8.224c0.326 0 0.59 0.256 0.59 0.57s-0.265 0.57-0.59 0.57c-0.326 0-0.59-0.256-0.59-0.57s0.265-0.57 0.59-0.57z"></path>
<path fill="#fff" style="fill: var(--color3, #fff)" d="M12.656 12.241c0.049 0.035 0.108 0.054 0.168 0.054s0.119-0.019 0.168-0.054c0.088-0.062 2.161-1.553 2.152-3.415 0-1.275-1.041-2.312-2.321-2.312s-2.321 1.037-2.321 2.311c-0.008 1.863 2.064 3.354 2.152 3.416zM12.824 7.092c0.96 0 1.74 0.778 1.74 1.736 0.006 1.283-1.273 2.435-1.74 2.813-0.467-0.378-1.747-1.53-1.74-2.814 0-0.956 0.781-1.734 1.74-1.734z"></path>
<path fill="#fff" style="fill: var(--color3, #fff)" d="M4.785 15.211c-0.056 0-0.111-0.008-0.165-0.023s-0.097-0.036-0.131-0.064l0.064-0.107c0.027 0.022 0.060 0.040 0.1 0.052s0.082 0.021 0.124 0.021c0.067 0 0.116-0.016 0.147-0.047s0.047-0.076 0.047-0.138v-0.108l0.011-0.138-0.005-0.138v-0.148h0.136v0.516c0 0.11-0.028 0.191-0.084 0.243s-0.138 0.079-0.244 0.079zM4.767 14.955c-0.058 0-0.11-0.012-0.157-0.036s-0.083-0.060-0.111-0.104c-0.027-0.044-0.040-0.096-0.040-0.155s0.013-0.11 0.040-0.154c0.027-0.044 0.064-0.078 0.111-0.103s0.1-0.036 0.157-0.036c0.052 0 0.098 0.010 0.139 0.031s0.074 0.052 0.098 0.096c0.025 0.043 0.038 0.099 0.038 0.166s-0.013 0.124-0.038 0.168c-0.024 0.043-0.057 0.076-0.098 0.097s-0.087 0.031-0.139 0.031zM4.789 14.834c0.036 0 0.068-0.007 0.096-0.022s0.050-0.036 0.065-0.062c0.016-0.027 0.024-0.057 0.024-0.091s-0.008-0.064-0.024-0.090c-0.015-0.027-0.037-0.047-0.065-0.060s-0.060-0.022-0.096-0.022-0.068 0.007-0.097 0.022c-0.028 0.014-0.050 0.034-0.066 0.060s-0.023 0.056-0.023 0.090 0.008 0.065 0.023 0.091c0.016 0.026 0.038 0.046 0.066 0.062s0.061 0.022 0.097 0.022zM5.604 14.99c-0.068 0-0.127-0.013-0.178-0.040s-0.089-0.065-0.117-0.112c-0.027-0.047-0.041-0.101-0.041-0.161s0.013-0.114 0.040-0.161c0.027-0.047 0.065-0.084 0.112-0.111s0.102-0.040 0.163-0.040c0.059 0 0.112 0.013 0.158 0.039s0.083 0.062 0.109 0.109c0.027 0.047 0.040 0.103 0.040 0.166 0 0.006-0 0.013-0.001 0.021s-0 0.015-0.001 0.022h-0.507v-0.095h0.432l-0.056 0.030c0.001-0.035-0.006-0.066-0.022-0.092s-0.036-0.047-0.063-0.063c-0.026-0.015-0.056-0.023-0.090-0.023s-0.066 0.008-0.092 0.023c-0.026 0.015-0.046 0.036-0.062 0.064s-0.022 0.058-0.022 0.095v0.023c0 0.036 0.008 0.069 0.025 0.097s0.040 0.050 0.071 0.065c0.030 0.015 0.065 0.023 0.105 0.023 0.034 0 0.065-0.005 0.092-0.016s0.052-0.027 0.073-0.050l0.076 0.088c-0.027 0.032-0.062 0.057-0.104 0.074s-0.088 0.025-0.141 0.025zM6.316 14.99c-0.062 0-0.118-0.013-0.166-0.040s-0.087-0.065-0.115-0.112-0.042-0.101-0.042-0.161c0-0.061 0.014-0.114 0.042-0.161s0.066-0.084 0.115-0.111 0.104-0.040 0.166-0.040c0.063 0 0.119 0.013 0.168 0.040s0.088 0.063 0.115 0.109c0.028 0.046 0.042 0.1 0.042 0.162 0 0.060-0.014 0.114-0.042 0.161s-0.066 0.084-0.115 0.112c-0.049 0.027-0.104 0.040-0.168 0.040zM6.316 14.868c0.035 0 0.066-0.008 0.093-0.023s0.049-0.037 0.064-0.066c0.016-0.029 0.024-0.063 0.024-0.101s-0.008-0.073-0.024-0.101c-0.015-0.029-0.036-0.051-0.064-0.066s-0.058-0.023-0.092-0.023c-0.035 0-0.066 0.008-0.093 0.023s-0.048 0.037-0.064 0.066c-0.016 0.028-0.024 0.062-0.024 0.101s0.008 0.073 0.024 0.101 0.037 0.051 0.064 0.066c0.027 0.015 0.058 0.023 0.092 0.023zM6.794 14.982v-0.609h0.136v0.168l-0.016-0.049c0.018-0.041 0.047-0.072 0.085-0.093s0.089-0.032 0.147-0.032v0.136c-0.006-0.002-0.012-0.002-0.017-0.002s-0.011-0.001-0.016-0.001c-0.054 0-0.097 0.016-0.129 0.048s-0.048 0.078-0.048 0.14v0.295h-0.143zM7.554 15.211c-0.056 0-0.111-0.008-0.165-0.023s-0.097-0.036-0.131-0.064l0.064-0.107c0.027 0.022 0.060 0.040 0.1 0.052s0.082 0.021 0.124 0.021c0.067 0 0.116-0.016 0.147-0.047s0.047-0.076 0.047-0.138v-0.108l0.011-0.138-0.005-0.138v-0.148h0.136v0.516c0 0.11-0.028 0.191-0.084 0.243s-0.138 0.079-0.244 0.079zM7.535 14.955c-0.058 0-0.11-0.012-0.157-0.036s-0.083-0.060-0.111-0.104c-0.027-0.044-0.040-0.096-0.040-0.155s0.013-0.11 0.040-0.154c0.027-0.044 0.064-0.078 0.111-0.103s0.1-0.036 0.157-0.036c0.052 0 0.098 0.010 0.139 0.031s0.074 0.052 0.098 0.096c0.025 0.043 0.038 0.099 0.038 0.166s-0.013 0.124-0.038 0.168c-0.024 0.043-0.057 0.076-0.098 0.097s-0.087 0.031-0.139 0.031zM7.557 14.834c0.036 0 0.068-0.007 0.096-0.022s0.050-0.036 0.065-0.062c0.016-0.027 0.024-0.057 0.024-0.091s-0.008-0.064-0.024-0.090c-0.015-0.027-0.037-0.047-0.065-0.060s-0.060-0.022-0.096-0.022-0.068 0.007-0.097 0.022c-0.028 0.014-0.050 0.034-0.066 0.060s-0.023 0.056-0.023 0.090 0.008 0.065 0.023 0.091c0.016 0.026 0.038 0.046 0.066 0.062s0.061 0.022 0.097 0.022zM8.085 14.982v-0.609h0.143v0.609h-0.143zM8.157 14.273c-0.027 0-0.049-0.008-0.066-0.025s-0.025-0.037-0.025-0.060c0-0.024 0.008-0.044 0.025-0.060s0.040-0.025 0.066-0.025c0.027 0 0.048 0.008 0.065 0.024s0.026 0.035 0.026 0.058c0 0.025-0.008 0.046-0.025 0.064s-0.039 0.025-0.066 0.025zM8.806 14.982v-0.123l-0.008-0.026v-0.215c0-0.042-0.013-0.074-0.038-0.097s-0.063-0.035-0.114-0.035c-0.034 0-0.068 0.005-0.101 0.016s-0.060 0.025-0.083 0.044l-0.056-0.104c0.033-0.025 0.071-0.044 0.116-0.056s0.093-0.019 0.141-0.019c0.088 0 0.156 0.021 0.204 0.064s0.073 0.107 0.073 0.195v0.357h-0.134zM8.615 14.99c-0.046 0-0.085-0.008-0.12-0.023s-0.061-0.038-0.080-0.065c-0.018-0.028-0.027-0.060-0.027-0.095s0.008-0.065 0.024-0.092c0.017-0.027 0.044-0.049 0.081-0.065s0.087-0.024 0.148-0.024h0.177v0.095h-0.166c-0.049 0-0.081 0.008-0.098 0.024s-0.025 0.034-0.025 0.057c0 0.026 0.010 0.046 0.031 0.062s0.049 0.023 0.085 0.023c0.035 0 0.066-0.008 0.093-0.024s0.048-0.040 0.060-0.071l0.024 0.085c-0.014 0.036-0.038 0.063-0.074 0.083s-0.079 0.030-0.133 0.030zM9.186 14.99c-0.026 0-0.048-0.009-0.066-0.026s-0.027-0.041-0.027-0.068c0-0.029 0.009-0.052 0.027-0.068s0.040-0.026 0.066-0.026c0.026 0 0.048 0.009 0.066 0.026s0.027 0.040 0.027 0.068c0 0.027-0.009 0.050-0.027 0.068s-0.040 0.026-0.066 0.026zM9.447 15.211c-0.030 0-0.059-0.005-0.089-0.015s-0.054-0.024-0.074-0.041l0.057-0.105c0.014 0.013 0.031 0.023 0.049 0.031s0.037 0.011 0.056 0.011c0.026 0 0.047-0.006 0.063-0.019s0.031-0.035 0.044-0.065l0.035-0.080 0.011-0.017 0.23-0.538h0.137l-0.285 0.658c-0.019 0.046-0.040 0.082-0.064 0.108s-0.049 0.045-0.078 0.056c-0.028 0.011-0.059 0.016-0.093 0.016zM9.572 15.004l-0.275-0.63h0.148l0.223 0.526-0.097 0.105zM10.329 14.99c-0.062 0-0.118-0.013-0.166-0.040s-0.087-0.065-0.115-0.112c-0.028-0.047-0.042-0.101-0.042-0.161s0.014-0.114 0.042-0.161c0.028-0.047 0.067-0.084 0.115-0.111s0.104-0.040 0.166-0.040c0.063 0 0.119 0.013 0.168 0.040s0.088 0.063 0.115 0.109c0.028 0.046 0.042 0.1 0.042 0.162 0 0.060-0.014 0.114-0.042 0.161s-0.066 0.084-0.115 0.112c-0.049 0.027-0.104 0.040-0.168 0.040zM10.329 14.868c0.035 0 0.066-0.008 0.093-0.023s0.049-0.037 0.064-0.066c0.016-0.029 0.024-0.063 0.024-0.101s-0.008-0.073-0.024-0.101c-0.015-0.029-0.036-0.051-0.064-0.066s-0.058-0.023-0.092-0.023c-0.035 0-0.066 0.008-0.093 0.023s-0.048 0.037-0.064 0.066c-0.016 0.028-0.024 0.062-0.024 0.101s0.008 0.073 0.024 0.101 0.037 0.051 0.064 0.066c0.027 0.015 0.058 0.023 0.092 0.023zM11.064 14.99c-0.052 0-0.097-0.010-0.137-0.028s-0.070-0.049-0.092-0.089c-0.022-0.040-0.033-0.091-0.033-0.152v-0.348h0.143v0.328c0 0.055 0.012 0.096 0.036 0.123s0.060 0.040 0.106 0.040c0.033 0 0.062-0.007 0.087-0.021s0.044-0.034 0.058-0.062c0.014-0.027 0.022-0.061 0.022-0.101v-0.308h0.143v0.609h-0.136v-0.164l0.024 0.050c-0.021 0.040-0.051 0.070-0.090 0.091s-0.083 0.031-0.13 0.031zM11.944 14.367c0.049 0 0.092 0.010 0.13 0.028s0.069 0.048 0.091 0.088c0.022 0.039 0.033 0.089 0.033 0.15v0.349h-0.143v-0.331c0-0.054-0.013-0.094-0.039-0.121s-0.060-0.040-0.106-0.040c-0.033 0-0.063 0.007-0.089 0.021s-0.046 0.034-0.060 0.062c-0.014 0.027-0.021 0.060-0.021 0.101v0.308h-0.143v-0.609h0.136v0.164l-0.024-0.050c0.021-0.039 0.052-0.068 0.092-0.089s0.088-0.032 0.141-0.032zM12.672 15.211c-0.056 0-0.111-0.008-0.165-0.023s-0.097-0.036-0.131-0.064l0.064-0.107c0.027 0.022 0.060 0.040 0.1 0.052s0.082 0.021 0.124 0.021c0.067 0 0.116-0.016 0.147-0.047s0.047-0.076 0.047-0.138v-0.108l0.011-0.138-0.005-0.138v-0.148h0.136v0.516c0 0.11-0.028 0.191-0.084 0.243s-0.138 0.079-0.244 0.079zM12.654 14.955c-0.058 0-0.11-0.012-0.157-0.036s-0.083-0.060-0.111-0.104c-0.027-0.044-0.040-0.096-0.040-0.155s0.013-0.11 0.040-0.154c0.027-0.044 0.064-0.078 0.111-0.103s0.1-0.036 0.157-0.036c0.052 0 0.098 0.010 0.139 0.031s0.074 0.052 0.098 0.096c0.025 0.043 0.038 0.099 0.038 0.166s-0.013 0.124-0.038 0.168c-0.024 0.043-0.057 0.076-0.098 0.097s-0.087 0.031-0.139 0.031zM12.676 14.834c0.036 0 0.068-0.007 0.096-0.022s0.050-0.036 0.065-0.062c0.016-0.027 0.024-0.057 0.024-0.091s-0.008-0.064-0.024-0.090c-0.015-0.027-0.037-0.047-0.065-0.060s-0.060-0.022-0.096-0.022c-0.036 0-0.068 0.007-0.097 0.022s-0.050 0.034-0.066 0.060c-0.015 0.026-0.023 0.056-0.023 0.090s0.008 0.065 0.023 0.091c0.016 0.026 0.038 0.046 0.066 0.062s0.061 0.022 0.097 0.022zM13.701 15.215c-0.081 0-0.154-0.013-0.22-0.039s-0.123-0.062-0.171-0.109c-0.048-0.047-0.085-0.102-0.111-0.165s-0.039-0.133-0.039-0.209 0.013-0.144 0.039-0.207c0.026-0.063 0.063-0.118 0.111-0.164s0.106-0.082 0.173-0.108c0.067-0.026 0.141-0.039 0.222-0.039 0.078 0 0.15 0.013 0.215 0.038s0.122 0.059 0.169 0.104c0.048 0.044 0.085 0.097 0.111 0.157s0.040 0.128 0.040 0.201c0 0.065-0.009 0.122-0.026 0.17s-0.043 0.083-0.075 0.108c-0.032 0.025-0.071 0.038-0.117 0.038s-0.085-0.014-0.113-0.042c-0.027-0.028-0.041-0.069-0.041-0.122v-0.065l0.005-0.065-0.010-0.148v-0.13h0.127v0.388c0 0.029 0.006 0.049 0.017 0.062s0.026 0.017 0.042 0.017c0.021 0 0.038-0.008 0.052-0.024s0.025-0.040 0.032-0.071c0.008-0.031 0.011-0.069 0.011-0.113 0-0.061-0.011-0.116-0.032-0.166s-0.050-0.093-0.090-0.129c-0.039-0.036-0.085-0.064-0.139-0.083s-0.112-0.030-0.177-0.030c-0.066 0-0.126 0.011-0.18 0.032s-0.1 0.050-0.139 0.088-0.069 0.083-0.090 0.136c-0.021 0.052-0.031 0.108-0.031 0.17 0 0.063 0.010 0.121 0.031 0.173s0.050 0.097 0.088 0.134c0.039 0.038 0.085 0.067 0.138 0.088s0.113 0.032 0.179 0.032c0.035 0 0.072-0.004 0.111-0.013s0.076-0.020 0.111-0.038l0.031 0.091c-0.035 0.018-0.075 0.031-0.121 0.040s-0.089 0.014-0.131 0.014zM13.671 14.989c-0.052 0-0.099-0.012-0.14-0.036s-0.074-0.059-0.098-0.103c-0.024-0.044-0.035-0.095-0.035-0.152s0.012-0.106 0.035-0.149c0.024-0.044 0.056-0.078 0.097-0.103s0.089-0.036 0.141-0.036c0.051 0 0.095 0.011 0.133 0.034s0.068 0.054 0.089 0.097c0.021 0.043 0.032 0.095 0.032 0.157s-0.010 0.115-0.031 0.158c-0.021 0.043-0.050 0.076-0.088 0.099s-0.083 0.033-0.136 0.033zM13.695 14.878c0.033 0 0.062-0.007 0.087-0.021s0.045-0.035 0.059-0.063c0.015-0.027 0.023-0.060 0.023-0.097s-0.008-0.070-0.023-0.096c-0.014-0.027-0.034-0.047-0.059-0.060s-0.054-0.022-0.087-0.022c-0.033 0-0.063 0.007-0.089 0.022s-0.045 0.035-0.059 0.062c-0.014 0.027-0.021 0.058-0.021 0.095s0.007 0.069 0.021 0.096c0.014 0.027 0.034 0.047 0.059 0.063s0.056 0.022 0.089 0.022zM14.685 14.99c-0.068 0-0.127-0.013-0.178-0.040s-0.089-0.065-0.117-0.112c-0.027-0.047-0.041-0.101-0.041-0.161s0.013-0.114 0.040-0.161c0.027-0.047 0.065-0.084 0.112-0.111s0.102-0.040 0.163-0.040c0.059 0 0.112 0.013 0.158 0.039s0.083 0.062 0.109 0.109c0.027 0.047 0.040 0.103 0.040 0.166 0 0.006-0 0.013-0.001 0.021s-0 0.015-0.001 0.022h-0.507v-0.095h0.432l-0.056 0.030c0.001-0.035-0.006-0.066-0.022-0.092s-0.036-0.047-0.063-0.063c-0.026-0.015-0.056-0.023-0.090-0.023s-0.066 0.008-0.092 0.023c-0.026 0.015-0.046 0.036-0.062 0.064s-0.022 0.058-0.022 0.095v0.023c0 0.036 0.008 0.069 0.025 0.097s0.040 0.050 0.071 0.065c0.030 0.015 0.065 0.023 0.105 0.023 0.034 0 0.065-0.005 0.092-0.016s0.052-0.027 0.073-0.050l0.076 0.088c-0.027 0.032-0.062 0.057-0.104 0.074s-0.088 0.025-0.141 0.025zM15.025 14.982l0.268-0.349-0.002 0.076-0.255-0.336h0.158l0.179 0.239h-0.060l0.18-0.239h0.154l-0.258 0.336 0.001-0.076 0.267 0.349h-0.161l-0.188-0.254 0.059 0.008-0.185 0.246h-0.157zM16.142 14.982v-0.123l-0.008-0.026v-0.215c0-0.042-0.013-0.074-0.038-0.097s-0.063-0.035-0.114-0.035c-0.034 0-0.068 0.005-0.101 0.016s-0.060 0.025-0.083 0.044l-0.056-0.104c0.033-0.025 0.071-0.044 0.116-0.056s0.093-0.019 0.141-0.019c0.088 0 0.156 0.021 0.204 0.064s0.073 0.107 0.073 0.195v0.357h-0.134zM15.95 14.99c-0.046 0-0.085-0.008-0.12-0.023s-0.061-0.038-0.080-0.065c-0.018-0.028-0.027-0.060-0.027-0.095s0.008-0.065 0.024-0.092c0.017-0.027 0.044-0.049 0.081-0.065s0.087-0.024 0.148-0.024h0.177v0.095h-0.166c-0.049 0-0.081 0.008-0.098 0.024s-0.025 0.034-0.025 0.057c0 0.026 0.010 0.046 0.031 0.062s0.049 0.023 0.085 0.023c0.035 0 0.066-0.008 0.093-0.024s0.048-0.040 0.060-0.071l0.024 0.085c-0.014 0.036-0.038 0.063-0.074 0.083s-0.079 0.030-0.133 0.030zM17.244 14.367c0.049 0 0.092 0.010 0.129 0.028s0.068 0.048 0.089 0.088c0.021 0.039 0.032 0.089 0.032 0.15v0.349h-0.142v-0.331c0-0.054-0.012-0.094-0.035-0.121s-0.057-0.040-0.101-0.040c-0.031 0-0.059 0.007-0.083 0.021s-0.042 0.034-0.056 0.060c-0.013 0.027-0.019 0.060-0.019 0.101v0.309h-0.142v-0.331c0-0.054-0.012-0.094-0.035-0.121s-0.057-0.040-0.101-0.040c-0.031 0-0.059 0.007-0.083 0.021s-0.042 0.034-0.056 0.060c-0.013 0.027-0.019 0.060-0.019 0.101v0.309h-0.142v-0.609h0.136v0.162l-0.024-0.048c0.021-0.040 0.050-0.070 0.089-0.090s0.084-0.031 0.134-0.031c0.057 0 0.106 0.014 0.148 0.042s0.071 0.071 0.084 0.128l-0.056-0.019c0.020-0.046 0.052-0.082 0.098-0.109s0.098-0.041 0.158-0.041zM18.029 14.99c-0.049 0-0.095-0.011-0.136-0.034s-0.073-0.057-0.097-0.103c-0.024-0.046-0.035-0.105-0.035-0.176s0.011-0.13 0.034-0.176c0.024-0.046 0.055-0.079 0.096-0.101s0.086-0.034 0.138-0.034c0.060 0 0.113 0.013 0.158 0.039s0.083 0.062 0.109 0.108c0.027 0.046 0.041 0.101 0.041 0.164s-0.014 0.118-0.041 0.165c-0.027 0.046-0.063 0.082-0.109 0.108s-0.098 0.039-0.158 0.039zM17.692 15.203v-0.83h0.136v0.144l-0.005 0.162 0.011 0.162v0.363h-0.142zM18.013 14.868c0.034 0 0.065-0.008 0.091-0.023s0.049-0.037 0.065-0.066 0.024-0.063 0.024-0.101c0-0.040-0.008-0.073-0.024-0.101s-0.038-0.051-0.065-0.066c-0.027-0.015-0.057-0.023-0.091-0.023s-0.065 0.008-0.092 0.023c-0.027 0.015-0.049 0.037-0.065 0.066s-0.024 0.062-0.024 0.101c0 0.039 0.008 0.073 0.024 0.101s0.038 0.051 0.065 0.066c0.027 0.015 0.058 0.023 0.092 0.023zM18.489 14.982v-0.846h0.142v0.846h-0.142zM19.121 14.99c-0.068 0-0.127-0.013-0.178-0.040s-0.089-0.065-0.117-0.112c-0.027-0.047-0.041-0.101-0.041-0.161s0.013-0.114 0.040-0.161c0.027-0.047 0.065-0.084 0.112-0.111s0.102-0.040 0.163-0.040c0.059 0 0.112 0.013 0.158 0.039s0.083 0.062 0.109 0.109c0.027 0.047 0.040 0.103 0.040 0.166 0 0.006-0 0.013-0.001 0.021s-0 0.015-0.001 0.022h-0.507v-0.095h0.432l-0.056 0.030c0.001-0.035-0.006-0.066-0.022-0.092s-0.036-0.047-0.063-0.063c-0.026-0.015-0.056-0.023-0.090-0.023s-0.066 0.008-0.092 0.023c-0.026 0.015-0.046 0.036-0.062 0.064s-0.022 0.058-0.022 0.095v0.023c0 0.036 0.008 0.069 0.025 0.097s0.040 0.050 0.071 0.065c0.030 0.015 0.065 0.023 0.105 0.023 0.034 0 0.065-0.005 0.092-0.016s0.052-0.027 0.073-0.050l0.076 0.088c-0.027 0.032-0.062 0.057-0.104 0.074s-0.088 0.025-0.141 0.025zM19.606 14.99c-0.026 0-0.048-0.009-0.066-0.026s-0.027-0.041-0.027-0.068c0-0.029 0.009-0.052 0.027-0.068s0.040-0.026 0.066-0.026c0.026 0 0.048 0.009 0.066 0.026s0.027 0.040 0.027 0.068c0 0.027-0.009 0.050-0.027 0.068s-0.040 0.026-0.066 0.026zM20.125 14.99c-0.064 0-0.121-0.013-0.171-0.040s-0.088-0.065-0.116-0.112-0.042-0.101-0.042-0.161c0-0.061 0.014-0.114 0.042-0.161s0.067-0.084 0.116-0.111c0.050-0.027 0.107-0.040 0.171-0.040 0.059 0 0.111 0.012 0.156 0.036s0.080 0.059 0.104 0.105l-0.109 0.064c-0.018-0.029-0.041-0.050-0.067-0.064s-0.054-0.021-0.084-0.021c-0.035 0-0.067 0.008-0.095 0.023s-0.050 0.037-0.066 0.066c-0.016 0.028-0.024 0.062-0.024 0.101s0.008 0.074 0.024 0.103c0.016 0.028 0.038 0.050 0.066 0.065s0.060 0.023 0.095 0.023c0.030 0 0.059-0.007 0.084-0.021s0.049-0.035 0.067-0.064l0.109 0.064c-0.024 0.046-0.058 0.081-0.104 0.106s-0.097 0.036-0.156 0.036zM20.789 14.99c-0.062 0-0.118-0.013-0.166-0.040s-0.087-0.065-0.115-0.112c-0.028-0.047-0.042-0.101-0.042-0.161s0.014-0.114 0.042-0.161c0.028-0.047 0.066-0.084 0.115-0.111s0.104-0.040 0.166-0.040c0.063 0 0.119 0.013 0.168 0.040s0.088 0.063 0.115 0.109c0.028 0.046 0.042 0.1 0.042 0.162 0 0.060-0.014 0.114-0.042 0.161s-0.066 0.084-0.115 0.112c-0.049 0.027-0.105 0.040-0.168 0.040zM20.789 14.868c0.035 0 0.066-0.008 0.093-0.023s0.049-0.037 0.064-0.066c0.016-0.029 0.024-0.063 0.024-0.101s-0.008-0.073-0.024-0.101c-0.015-0.029-0.036-0.051-0.064-0.066s-0.058-0.023-0.092-0.023c-0.035 0-0.066 0.008-0.093 0.023s-0.048 0.037-0.064 0.066c-0.016 0.028-0.024 0.062-0.024 0.101s0.008 0.073 0.024 0.101 0.037 0.051 0.064 0.066c0.027 0.015 0.058 0.023 0.092 0.023zM22.034 14.367c0.049 0 0.092 0.010 0.129 0.028s0.068 0.048 0.089 0.088c0.021 0.039 0.032 0.089 0.032 0.15v0.349h-0.142v-0.331c0-0.054-0.012-0.094-0.035-0.121s-0.057-0.040-0.101-0.040c-0.031 0-0.059 0.007-0.083 0.021s-0.042 0.034-0.056 0.060c-0.013 0.027-0.019 0.060-0.019 0.101v0.309h-0.142v-0.331c0-0.054-0.012-0.094-0.035-0.121s-0.057-0.040-0.101-0.040c-0.031 0-0.059 0.007-0.083 0.021s-0.042 0.034-0.056 0.060c-0.013 0.027-0.019 0.060-0.019 0.101v0.309h-0.142v-0.609h0.136v0.162l-0.024-0.048c0.021-0.040 0.050-0.070 0.089-0.090s0.084-0.031 0.134-0.031c0.057 0 0.106 0.014 0.148 0.042s0.071 0.071 0.084 0.128l-0.056-0.019c0.020-0.046 0.052-0.082 0.098-0.109s0.098-0.041 0.158-0.041z"></path>
<path fill="#fff" style="fill: var(--color3, #fff)" d="M6.432 17.166c-0.056 0-0.111-0.008-0.165-0.023s-0.097-0.036-0.131-0.064l0.064-0.107c0.027 0.022 0.060 0.040 0.1 0.052s0.082 0.021 0.124 0.021c0.067 0 0.116-0.016 0.147-0.047s0.047-0.076 0.047-0.138v-0.108l0.011-0.138-0.005-0.138v-0.148h0.136v0.516c0 0.11-0.028 0.191-0.084 0.243s-0.138 0.079-0.244 0.079zM6.413 16.909c-0.058 0-0.11-0.012-0.157-0.036s-0.083-0.060-0.111-0.104c-0.027-0.044-0.040-0.096-0.040-0.155s0.013-0.11 0.040-0.154c0.027-0.044 0.064-0.078 0.111-0.103s0.1-0.036 0.157-0.036c0.052 0 0.098 0.010 0.139 0.031s0.074 0.052 0.098 0.096c0.025 0.043 0.038 0.099 0.038 0.166s-0.013 0.124-0.038 0.168c-0.024 0.043-0.057 0.076-0.098 0.097s-0.087 0.031-0.139 0.031zM6.435 16.788c0.036 0 0.068-0.007 0.096-0.022s0.050-0.036 0.065-0.062c0.016-0.027 0.024-0.057 0.024-0.091s-0.008-0.064-0.024-0.090c-0.015-0.027-0.037-0.047-0.065-0.060s-0.060-0.022-0.096-0.022-0.068 0.007-0.097 0.022c-0.028 0.014-0.050 0.034-0.066 0.060s-0.023 0.056-0.023 0.090 0.008 0.065 0.023 0.091c0.016 0.026 0.038 0.046 0.066 0.062s0.061 0.022 0.097 0.022zM7.25 16.944c-0.068 0-0.127-0.013-0.178-0.040s-0.089-0.065-0.117-0.112c-0.027-0.047-0.041-0.101-0.041-0.161s0.013-0.114 0.040-0.161c0.027-0.047 0.065-0.084 0.112-0.111s0.102-0.040 0.163-0.040c0.059 0 0.112 0.013 0.158 0.039s0.083 0.062 0.109 0.109c0.027 0.047 0.040 0.103 0.040 0.166 0 0.006-0 0.013-0.001 0.021s-0 0.015-0.001 0.022h-0.507v-0.095h0.432l-0.056 0.030c0.001-0.035-0.006-0.066-0.022-0.092s-0.036-0.047-0.063-0.063c-0.026-0.015-0.056-0.023-0.090-0.023s-0.066 0.008-0.092 0.023c-0.026 0.015-0.046 0.036-0.062 0.064s-0.022 0.058-0.022 0.095v0.023c0 0.036 0.008 0.069 0.025 0.097s0.040 0.050 0.071 0.065c0.030 0.015 0.065 0.023 0.105 0.023 0.034 0 0.065-0.005 0.092-0.016s0.052-0.027 0.073-0.050l0.076 0.088c-0.027 0.032-0.062 0.057-0.104 0.074s-0.088 0.025-0.141 0.025zM7.963 16.944c-0.062 0-0.118-0.013-0.166-0.040s-0.087-0.065-0.115-0.112-0.042-0.101-0.042-0.161c0-0.061 0.014-0.114 0.042-0.161s0.067-0.084 0.115-0.111 0.104-0.040 0.166-0.040c0.063 0 0.119 0.013 0.168 0.040s0.088 0.063 0.115 0.109c0.028 0.046 0.042 0.1 0.042 0.162 0 0.060-0.014 0.114-0.042 0.161s-0.066 0.084-0.115 0.112c-0.049 0.027-0.104 0.040-0.168 0.040zM7.963 16.822c0.035 0 0.066-0.008 0.093-0.023s0.049-0.037 0.064-0.066c0.016-0.029 0.024-0.063 0.024-0.101s-0.008-0.073-0.024-0.101c-0.015-0.029-0.036-0.051-0.064-0.066s-0.058-0.023-0.092-0.023c-0.035 0-0.066 0.008-0.093 0.023s-0.048 0.037-0.064 0.066c-0.016 0.028-0.024 0.062-0.024 0.101s0.008 0.073 0.024 0.101 0.037 0.051 0.064 0.066c0.027 0.015 0.058 0.023 0.092 0.023zM8.44 16.936v-0.609h0.136v0.168l-0.016-0.049c0.018-0.041 0.047-0.072 0.085-0.093s0.089-0.032 0.147-0.032v0.136c-0.006-0.002-0.012-0.002-0.017-0.002s-0.011-0.001-0.016-0.001c-0.054 0-0.097 0.016-0.129 0.048s-0.048 0.078-0.048 0.14v0.295h-0.143zM9.2 17.166c-0.056 0-0.111-0.008-0.165-0.023s-0.097-0.036-0.131-0.064l0.064-0.107c0.027 0.022 0.060 0.040 0.1 0.052s0.082 0.021 0.124 0.021c0.067 0 0.116-0.016 0.147-0.047s0.047-0.076 0.047-0.138v-0.108l0.011-0.138-0.005-0.138v-0.148h0.136v0.516c0 0.11-0.028 0.191-0.084 0.243s-0.138 0.079-0.244 0.079zM9.181 16.909c-0.058 0-0.11-0.012-0.157-0.036s-0.083-0.060-0.111-0.104c-0.027-0.044-0.040-0.096-0.040-0.155s0.013-0.11 0.040-0.154c0.027-0.044 0.064-0.078 0.111-0.103s0.1-0.036 0.157-0.036c0.052 0 0.098 0.010 0.139 0.031s0.074 0.052 0.098 0.096c0.025 0.043 0.038 0.099 0.038 0.166s-0.013 0.124-0.038 0.168c-0.024 0.043-0.057 0.076-0.098 0.097s-0.087 0.031-0.139 0.031zM9.203 16.788c0.036 0 0.068-0.007 0.096-0.022s0.050-0.036 0.065-0.062c0.016-0.027 0.024-0.057 0.024-0.091s-0.008-0.064-0.024-0.090c-0.015-0.027-0.037-0.047-0.065-0.060s-0.060-0.022-0.096-0.022c-0.036 0-0.068 0.007-0.097 0.022s-0.050 0.034-0.066 0.060c-0.015 0.026-0.023 0.056-0.023 0.090s0.008 0.065 0.023 0.091c0.016 0.026 0.038 0.046 0.066 0.062s0.061 0.022 0.097 0.022zM9.732 16.936v-0.609h0.143v0.609h-0.143zM9.803 16.227c-0.027 0-0.049-0.008-0.066-0.025s-0.025-0.037-0.025-0.060c0-0.024 0.008-0.044 0.025-0.060s0.040-0.025 0.066-0.025 0.048 0.008 0.065 0.024c0.018 0.015 0.026 0.035 0.026 0.058 0 0.025-0.008 0.046-0.025 0.064s-0.039 0.025-0.066 0.025zM10.453 16.936v-0.123l-0.008-0.026v-0.215c0-0.042-0.013-0.074-0.038-0.097s-0.063-0.035-0.114-0.035c-0.034 0-0.068 0.005-0.101 0.016s-0.060 0.026-0.083 0.044l-0.056-0.104c0.033-0.025 0.071-0.044 0.116-0.056s0.093-0.019 0.141-0.019c0.088 0 0.156 0.021 0.204 0.064s0.073 0.107 0.073 0.195v0.357h-0.134zM10.261 16.944c-0.046 0-0.085-0.008-0.12-0.023s-0.061-0.038-0.080-0.065c-0.018-0.028-0.027-0.060-0.027-0.095s0.008-0.065 0.024-0.092c0.017-0.027 0.044-0.049 0.081-0.065s0.087-0.024 0.148-0.024h0.177v0.095h-0.166c-0.049 0-0.081 0.008-0.098 0.024s-0.025 0.034-0.025 0.057c0 0.026 0.010 0.046 0.031 0.062s0.049 0.023 0.085 0.023c0.035 0 0.066-0.008 0.093-0.024s0.048-0.040 0.060-0.071l0.024 0.085c-0.014 0.036-0.038 0.063-0.074 0.083s-0.079 0.030-0.133 0.030zM10.832 16.944c-0.026 0-0.048-0.009-0.066-0.026s-0.027-0.041-0.027-0.068c0-0.029 0.009-0.052 0.027-0.068s0.040-0.026 0.066-0.026 0.048 0.009 0.066 0.026c0.018 0.017 0.027 0.040 0.027 0.068 0 0.027-0.009 0.050-0.027 0.068s-0.040 0.026-0.066 0.026zM11.093 17.166c-0.030 0-0.059-0.005-0.089-0.015s-0.054-0.024-0.074-0.041l0.057-0.105c0.014 0.013 0.031 0.023 0.049 0.031s0.037 0.011 0.056 0.011c0.026 0 0.047-0.006 0.063-0.019s0.031-0.035 0.044-0.065l0.035-0.080 0.011-0.017 0.23-0.538h0.137l-0.285 0.658c-0.019 0.046-0.040 0.082-0.064 0.108s-0.049 0.045-0.078 0.056c-0.028 0.011-0.059 0.016-0.093 0.016zM11.218 16.958l-0.275-0.63h0.148l0.223 0.526-0.097 0.105zM11.975 16.944c-0.062 0-0.118-0.013-0.166-0.040s-0.087-0.065-0.115-0.112c-0.028-0.047-0.042-0.101-0.042-0.161s0.014-0.114 0.042-0.161c0.028-0.047 0.066-0.084 0.115-0.111s0.104-0.040 0.166-0.040c0.063 0 0.119 0.013 0.168 0.040s0.088 0.063 0.115 0.109c0.028 0.046 0.042 0.1 0.042 0.162 0 0.060-0.014 0.114-0.042 0.161s-0.066 0.084-0.115 0.112c-0.049 0.027-0.105 0.040-0.168 0.040zM11.975 16.822c0.035 0 0.066-0.008 0.093-0.023s0.049-0.037 0.064-0.066c0.016-0.029 0.024-0.063 0.024-0.101s-0.008-0.073-0.024-0.101c-0.015-0.029-0.036-0.051-0.064-0.066s-0.058-0.023-0.092-0.023c-0.035 0-0.066 0.008-0.093 0.023s-0.048 0.037-0.064 0.066c-0.016 0.028-0.024 0.062-0.024 0.101s0.008 0.073 0.024 0.101 0.037 0.051 0.064 0.066c0.027 0.015 0.058 0.023 0.092 0.023zM12.71 16.944c-0.052 0-0.097-0.010-0.137-0.029s-0.070-0.049-0.092-0.089c-0.022-0.040-0.033-0.091-0.033-0.152v-0.348h0.143v0.328c0 0.055 0.012 0.096 0.036 0.123s0.060 0.040 0.106 0.040c0.033 0 0.062-0.007 0.087-0.021s0.044-0.034 0.058-0.062c0.014-0.027 0.022-0.061 0.022-0.101v-0.308h0.143v0.609h-0.136v-0.164l0.024 0.050c-0.021 0.040-0.051 0.070-0.090 0.091s-0.083 0.031-0.13 0.031zM13.59 16.321c0.049 0 0.092 0.010 0.13 0.029s0.069 0.048 0.091 0.088c0.022 0.039 0.033 0.089 0.033 0.15v0.349h-0.143v-0.331c0-0.054-0.013-0.094-0.039-0.121s-0.060-0.040-0.106-0.040c-0.033 0-0.063 0.007-0.089 0.021s-0.046 0.034-0.060 0.062c-0.014 0.027-0.021 0.060-0.021 0.101v0.308h-0.143v-0.609h0.136v0.164l-0.024-0.050c0.021-0.039 0.052-0.068 0.092-0.089s0.088-0.032 0.141-0.032zM14.318 17.166c-0.056 0-0.111-0.008-0.165-0.023s-0.097-0.036-0.131-0.064l0.064-0.107c0.027 0.022 0.060 0.040 0.1 0.052s0.082 0.021 0.124 0.021c0.067 0 0.116-0.016 0.147-0.047s0.047-0.076 0.047-0.138v-0.108l0.011-0.138-0.005-0.138v-0.148h0.136v0.516c0 0.11-0.028 0.191-0.084 0.243s-0.138 0.079-0.244 0.079zM14.3 16.909c-0.058 0-0.11-0.012-0.157-0.036s-0.083-0.060-0.111-0.104c-0.027-0.044-0.040-0.096-0.040-0.155s0.013-0.11 0.040-0.154c0.027-0.044 0.064-0.078 0.111-0.103s0.1-0.036 0.157-0.036c0.052 0 0.098 0.010 0.139 0.031s0.074 0.052 0.098 0.096c0.025 0.043 0.038 0.099 0.038 0.166s-0.013 0.124-0.038 0.168c-0.024 0.043-0.057 0.076-0.098 0.097s-0.087 0.031-0.139 0.031zM14.322 16.788c0.036 0 0.068-0.007 0.096-0.022s0.050-0.036 0.065-0.062c0.016-0.027 0.024-0.057 0.024-0.091s-0.008-0.064-0.024-0.090c-0.015-0.027-0.037-0.047-0.065-0.060s-0.060-0.022-0.096-0.022-0.068 0.007-0.097 0.022c-0.028 0.014-0.050 0.034-0.066 0.060s-0.023 0.056-0.023 0.090 0.008 0.065 0.023 0.091c0.016 0.026 0.038 0.046 0.066 0.062s0.061 0.022 0.097 0.022zM15.347 17.169c-0.081 0-0.154-0.013-0.22-0.039s-0.123-0.062-0.171-0.109c-0.048-0.047-0.085-0.102-0.111-0.165s-0.039-0.133-0.039-0.209 0.013-0.144 0.039-0.207c0.026-0.063 0.063-0.118 0.111-0.164s0.106-0.082 0.173-0.108c0.067-0.026 0.141-0.039 0.222-0.039 0.078 0 0.15 0.013 0.215 0.038s0.122 0.059 0.169 0.104c0.048 0.044 0.085 0.096 0.111 0.157s0.040 0.128 0.040 0.201c0 0.065-0.009 0.122-0.026 0.17s-0.043 0.083-0.075 0.108c-0.032 0.025-0.071 0.038-0.117 0.038s-0.085-0.014-0.113-0.042c-0.027-0.028-0.041-0.069-0.041-0.122v-0.065l0.005-0.065-0.010-0.148v-0.13h0.127v0.388c0 0.029 0.006 0.049 0.017 0.062s0.026 0.017 0.042 0.017c0.021 0 0.038-0.008 0.052-0.024s0.025-0.040 0.032-0.071c0.008-0.031 0.011-0.069 0.011-0.113 0-0.061-0.011-0.116-0.032-0.166s-0.051-0.093-0.090-0.129c-0.039-0.036-0.085-0.064-0.139-0.083s-0.112-0.030-0.177-0.030c-0.066 0-0.126 0.011-0.18 0.032s-0.1 0.050-0.139 0.088-0.069 0.083-0.090 0.136c-0.021 0.052-0.031 0.108-0.031 0.17 0 0.063 0.010 0.121 0.031 0.173s0.050 0.097 0.088 0.134c0.039 0.038 0.085 0.067 0.138 0.088s0.113 0.032 0.179 0.032c0.035 0 0.072-0.004 0.111-0.013s0.076-0.020 0.111-0.038l0.031 0.091c-0.035 0.017-0.075 0.031-0.121 0.040s-0.089 0.014-0.131 0.014zM15.318 16.943c-0.052 0-0.099-0.012-0.14-0.036s-0.074-0.059-0.098-0.103c-0.024-0.044-0.035-0.095-0.035-0.152s0.012-0.106 0.035-0.149c0.024-0.044 0.056-0.078 0.097-0.103s0.089-0.036 0.141-0.036c0.051 0 0.095 0.011 0.133 0.034s0.068 0.054 0.089 0.097c0.021 0.043 0.032 0.095 0.032 0.157s-0.010 0.115-0.031 0.158c-0.021 0.043-0.050 0.076-0.088 0.099s-0.083 0.033-0.136 0.033zM15.342 16.833c0.033 0 0.062-0.007 0.087-0.021s0.045-0.035 0.059-0.063c0.015-0.027 0.023-0.060 0.023-0.097s-0.008-0.070-0.023-0.096c-0.014-0.027-0.034-0.047-0.059-0.060s-0.054-0.022-0.087-0.022c-0.033 0-0.063 0.007-0.089 0.022s-0.045 0.035-0.059 0.062c-0.014 0.027-0.021 0.058-0.021 0.095s0.007 0.069 0.021 0.096c0.014 0.027 0.034 0.047 0.059 0.063s0.055 0.022 0.089 0.022zM16.383 16.944c-0.049 0-0.095-0.011-0.136-0.034s-0.073-0.057-0.097-0.103c-0.024-0.046-0.035-0.105-0.035-0.176s0.011-0.13 0.034-0.176c0.024-0.046 0.056-0.079 0.096-0.101s0.086-0.034 0.138-0.034c0.060 0 0.113 0.013 0.158 0.039s0.083 0.062 0.109 0.108c0.027 0.046 0.041 0.101 0.041 0.164s-0.014 0.118-0.041 0.165c-0.027 0.046-0.063 0.082-0.109 0.108s-0.098 0.039-0.158 0.039zM16.046 17.158v-0.83h0.136v0.144l-0.005 0.162 0.011 0.162v0.363h-0.142zM16.367 16.822c0.034 0 0.065-0.008 0.091-0.023s0.049-0.037 0.065-0.066 0.024-0.063 0.024-0.101c0-0.040-0.008-0.073-0.024-0.101s-0.038-0.051-0.065-0.066c-0.027-0.015-0.057-0.023-0.091-0.023s-0.065 0.008-0.092 0.023c-0.027 0.015-0.049 0.037-0.065 0.066s-0.024 0.062-0.024 0.101c0 0.039 0.008 0.073 0.024 0.101s0.038 0.051 0.065 0.066c0.027 0.015 0.058 0.023 0.092 0.023zM16.843 16.936v-0.846h0.142v0.846h-0.142zM17.475 16.944c-0.068 0-0.127-0.013-0.178-0.040s-0.089-0.065-0.117-0.112c-0.027-0.047-0.041-0.101-0.041-0.161s0.013-0.114 0.040-0.161c0.027-0.047 0.065-0.084 0.112-0.111s0.102-0.040 0.163-0.040c0.059 0 0.112 0.013 0.158 0.039s0.083 0.062 0.109 0.109c0.027 0.047 0.040 0.103 0.040 0.166 0 0.006-0 0.013-0.001 0.021s-0 0.015-0.001 0.022h-0.507v-0.095h0.432l-0.056 0.030c0.001-0.035-0.006-0.066-0.022-0.092s-0.036-0.047-0.063-0.063c-0.026-0.015-0.056-0.023-0.090-0.023s-0.066 0.008-0.092 0.023c-0.026 0.015-0.046 0.036-0.062 0.064s-0.022 0.058-0.022 0.095v0.023c0 0.036 0.008 0.069 0.025 0.097s0.040 0.050 0.071 0.065c0.030 0.015 0.065 0.023 0.105 0.023 0.034 0 0.065-0.005 0.092-0.016s0.052-0.027 0.073-0.050l0.076 0.088c-0.027 0.032-0.062 0.057-0.104 0.074s-0.088 0.025-0.141 0.025zM17.96 16.944c-0.026 0-0.048-0.009-0.066-0.026s-0.027-0.041-0.027-0.068c0-0.029 0.009-0.052 0.027-0.068s0.040-0.026 0.066-0.026 0.048 0.009 0.066 0.026c0.018 0.017 0.027 0.040 0.027 0.068 0 0.027-0.009 0.050-0.027 0.068s-0.040 0.026-0.066 0.026zM18.478 16.944c-0.064 0-0.121-0.013-0.171-0.040s-0.088-0.065-0.116-0.112c-0.028-0.047-0.042-0.101-0.042-0.161s0.014-0.114 0.042-0.161c0.028-0.047 0.067-0.084 0.116-0.111s0.107-0.040 0.171-0.040c0.059 0 0.111 0.012 0.156 0.036s0.080 0.059 0.104 0.105l-0.109 0.064c-0.018-0.029-0.041-0.050-0.067-0.064s-0.054-0.021-0.084-0.021c-0.035 0-0.067 0.008-0.095 0.023s-0.050 0.037-0.066 0.066c-0.016 0.028-0.024 0.062-0.024 0.101s0.008 0.074 0.024 0.103c0.016 0.028 0.038 0.050 0.066 0.065s0.060 0.023 0.095 0.023c0.030 0 0.058-0.007 0.084-0.021s0.049-0.035 0.067-0.064l0.109 0.064c-0.024 0.046-0.058 0.081-0.104 0.106s-0.097 0.036-0.156 0.036zM19.142 16.944c-0.062 0-0.118-0.013-0.166-0.040s-0.087-0.065-0.115-0.112-0.042-0.101-0.042-0.161c0-0.061 0.014-0.114 0.042-0.161s0.067-0.084 0.115-0.111 0.104-0.040 0.166-0.040c0.063 0 0.119 0.013 0.168 0.040s0.088 0.063 0.115 0.109c0.028 0.046 0.042 0.1 0.042 0.162 0 0.060-0.014 0.114-0.042 0.161s-0.066 0.084-0.115 0.112c-0.049 0.027-0.104 0.040-0.168 0.040zM19.142 16.822c0.035 0 0.066-0.008 0.093-0.023s0.049-0.037 0.064-0.066c0.016-0.029 0.024-0.063 0.024-0.101s-0.008-0.073-0.024-0.101c-0.015-0.029-0.036-0.051-0.064-0.066s-0.058-0.023-0.092-0.023c-0.035 0-0.066 0.008-0.093 0.023s-0.048 0.037-0.064 0.066c-0.016 0.028-0.024 0.062-0.024 0.101s0.008 0.073 0.024 0.101 0.037 0.051 0.064 0.066c0.027 0.015 0.058 0.023 0.092 0.023zM20.388 16.321c0.049 0 0.092 0.010 0.129 0.029s0.068 0.048 0.089 0.088c0.021 0.039 0.032 0.089 0.032 0.15v0.349h-0.142v-0.331c0-0.054-0.012-0.094-0.035-0.121s-0.057-0.040-0.101-0.040c-0.031 0-0.059 0.007-0.083 0.021s-0.042 0.034-0.056 0.060c-0.013 0.027-0.019 0.060-0.019 0.101v0.309h-0.142v-0.331c0-0.054-0.012-0.094-0.035-0.121s-0.057-0.040-0.101-0.040c-0.031 0-0.059 0.007-0.083 0.021s-0.042 0.034-0.056 0.060c-0.013 0.027-0.019 0.060-0.019 0.101v0.309h-0.142v-0.609h0.136v0.162l-0.024-0.048c0.021-0.040 0.050-0.070 0.089-0.090s0.084-0.031 0.134-0.031c0.057 0 0.106 0.014 0.148 0.042s0.071 0.071 0.084 0.128l-0.056-0.019c0.020-0.046 0.052-0.082 0.098-0.109s0.098-0.041 0.158-0.041z"></path>
<path fill="#fff" style="fill: var(--color3, #fff)" d="M9.759 20.209c-0.072 0-0.139-0.011-0.199-0.034s-0.112-0.056-0.158-0.099c-0.044-0.043-0.079-0.093-0.104-0.15s-0.036-0.12-0.036-0.189 0.012-0.132 0.036-0.189c0.025-0.057 0.060-0.107 0.106-0.15s0.098-0.075 0.159-0.098c0.061-0.023 0.128-0.035 0.201-0.035 0.081 0 0.153 0.013 0.218 0.040s0.12 0.066 0.164 0.117l-0.136 0.125c-0.033-0.035-0.069-0.060-0.108-0.077s-0.082-0.026-0.128-0.026c-0.044 0-0.085 0.007-0.121 0.021s-0.068 0.034-0.095 0.060c-0.026 0.026-0.046 0.057-0.061 0.093s-0.021 0.075-0.021 0.119c0 0.043 0.007 0.082 0.021 0.117s0.035 0.067 0.061 0.094c0.027 0.026 0.058 0.046 0.094 0.060s0.076 0.021 0.12 0.021c0.042 0 0.082-0.006 0.121-0.020s0.079-0.037 0.116-0.069l0.12 0.152c-0.050 0.037-0.107 0.066-0.173 0.086s-0.13 0.030-0.195 0.030zM9.935 20.066v-0.343h0.193v0.37l-0.193-0.027zM10.665 20.204c-0.080 0-0.15-0.016-0.211-0.047s-0.106-0.074-0.139-0.128c-0.033-0.055-0.050-0.117-0.050-0.186s0.016-0.132 0.048-0.186c0.033-0.055 0.078-0.097 0.134-0.128s0.12-0.047 0.191-0.047c0.069 0 0.13 0.015 0.185 0.044s0.099 0.070 0.132 0.125c0.032 0.054 0.048 0.119 0.048 0.194 0 0.008-0 0.017-0.001 0.027s-0.002 0.019-0.003 0.027h-0.569v-0.119h0.463l-0.078 0.035c0-0.036-0.007-0.068-0.022-0.095s-0.035-0.048-0.061-0.063c-0.026-0.016-0.056-0.023-0.091-0.023s-0.066 0.008-0.092 0.023c-0.026 0.015-0.046 0.036-0.061 0.064s-0.022 0.059-0.022 0.096v0.031c0 0.038 0.008 0.072 0.025 0.102s0.041 0.051 0.072 0.066c0.031 0.015 0.068 0.022 0.109 0.022 0.037 0 0.070-0.006 0.098-0.017s0.055-0.028 0.078-0.051l0.108 0.117c-0.032 0.036-0.073 0.065-0.121 0.085s-0.105 0.029-0.168 0.029zM11.434 20.204c-0.083 0-0.147-0.021-0.193-0.063s-0.069-0.106-0.069-0.189v-0.615h0.203v0.612c0 0.030 0.008 0.053 0.023 0.069s0.037 0.023 0.064 0.023c0.032 0 0.059-0.009 0.082-0.026l0.055 0.143c-0.021 0.015-0.046 0.026-0.076 0.034s-0.059 0.010-0.090 0.010zM11.064 19.664v-0.156h0.486v0.156h-0.486zM12.413 20.209c-0.073 0-0.143-0.010-0.21-0.029s-0.121-0.046-0.162-0.077l0.072-0.159c0.039 0.028 0.085 0.051 0.138 0.069s0.108 0.026 0.163 0.026c0.042 0 0.075-0.004 0.1-0.012s0.045-0.020 0.057-0.035 0.018-0.032 0.018-0.051c0-0.024-0.010-0.043-0.029-0.057s-0.044-0.026-0.076-0.035c-0.031-0.010-0.066-0.018-0.104-0.026s-0.075-0.019-0.113-0.031c-0.037-0.012-0.072-0.028-0.103-0.047s-0.057-0.044-0.077-0.076c-0.019-0.031-0.029-0.071-0.029-0.12 0-0.052 0.014-0.099 0.042-0.142s0.071-0.078 0.128-0.103c0.057-0.026 0.129-0.039 0.215-0.039 0.057 0 0.114 0.007 0.169 0.021s0.105 0.033 0.147 0.060l-0.065 0.16c-0.043-0.024-0.085-0.042-0.128-0.053s-0.084-0.018-0.125-0.018-0.074 0.005-0.1 0.014c-0.026 0.010-0.045 0.022-0.056 0.038s-0.017 0.032-0.017 0.052c0 0.023 0.010 0.043 0.029 0.057s0.044 0.025 0.076 0.034 0.066 0.017 0.103 0.026c0.038 0.009 0.076 0.019 0.113 0.030s0.073 0.026 0.104 0.046 0.056 0.044 0.076 0.076c0.020 0.031 0.030 0.071 0.030 0.119 0 0.051-0.014 0.098-0.043 0.141s-0.072 0.077-0.129 0.103c-0.056 0.026-0.128 0.039-0.215 0.039zM13.234 20.204c-0.058 0-0.11-0.011-0.156-0.034s-0.080-0.057-0.106-0.103c-0.025-0.047-0.038-0.106-0.038-0.178v-0.396h0.203v0.366c0 0.058 0.012 0.101 0.036 0.129 0.025 0.027 0.060 0.040 0.106 0.040 0.031 0 0.059-0.006 0.083-0.020s0.043-0.035 0.057-0.063c0.014-0.029 0.021-0.064 0.021-0.107v-0.347h0.203v0.701h-0.193v-0.193l0.035 0.056c-0.023 0.049-0.058 0.086-0.104 0.111s-0.095 0.036-0.149 0.036zM14.255 20.204c-0.059 0-0.111-0.013-0.155-0.039s-0.079-0.066-0.104-0.119c-0.024-0.054-0.036-0.122-0.036-0.203s0.012-0.15 0.035-0.203 0.057-0.093 0.102-0.119c0.044-0.026 0.097-0.039 0.159-0.039 0.066 0 0.125 0.015 0.177 0.046s0.095 0.071 0.125 0.125c0.031 0.054 0.047 0.117 0.047 0.19s-0.016 0.138-0.047 0.192c-0.030 0.054-0.072 0.096-0.125 0.125s-0.111 0.044-0.177 0.044zM13.841 20.446v-0.954h0.194v0.143l-0.004 0.208 0.013 0.207v0.395h-0.203zM14.22 20.037c0.034 0 0.064-0.008 0.090-0.023s0.048-0.038 0.064-0.066c0.016-0.030 0.025-0.064 0.025-0.104s-0.008-0.076-0.025-0.104c-0.016-0.029-0.037-0.051-0.064-0.066s-0.056-0.023-0.090-0.023-0.064 0.008-0.091 0.023c-0.027 0.016-0.048 0.038-0.064 0.066s-0.023 0.063-0.023 0.104c0 0.040 0.008 0.075 0.023 0.104s0.037 0.051 0.064 0.066c0.027 0.016 0.057 0.023 0.091 0.023zM15.162 20.204c-0.059 0-0.111-0.013-0.155-0.039s-0.079-0.066-0.104-0.119c-0.024-0.054-0.036-0.122-0.036-0.203s0.012-0.15 0.035-0.203 0.057-0.093 0.102-0.119c0.044-0.026 0.097-0.039 0.159-0.039 0.066 0 0.125 0.015 0.177 0.046s0.095 0.071 0.125 0.125c0.031 0.054 0.047 0.117 0.047 0.19s-0.016 0.138-0.047 0.192c-0.030 0.054-0.072 0.096-0.125 0.125s-0.111 0.044-0.177 0.044zM14.748 20.446v-0.954h0.194v0.143l-0.004 0.208 0.013 0.207v0.395h-0.203zM15.127 20.037c0.034 0 0.064-0.008 0.090-0.023s0.048-0.038 0.064-0.066c0.017-0.030 0.025-0.064 0.025-0.104s-0.008-0.076-0.025-0.104c-0.016-0.029-0.037-0.051-0.064-0.066s-0.056-0.023-0.090-0.023-0.064 0.008-0.091 0.023c-0.027 0.016-0.048 0.038-0.064 0.066s-0.023 0.063-0.023 0.104c0 0.040 0.008 0.075 0.023 0.104s0.037 0.051 0.064 0.066c0.027 0.016 0.057 0.023 0.091 0.023zM15.989 20.204c-0.075 0-0.141-0.016-0.199-0.047s-0.103-0.074-0.137-0.128c-0.033-0.055-0.050-0.117-0.050-0.186s0.017-0.132 0.050-0.186c0.034-0.055 0.079-0.097 0.137-0.128s0.125-0.047 0.199-0.047c0.074 0 0.14 0.016 0.198 0.047s0.104 0.073 0.137 0.126c0.033 0.054 0.049 0.116 0.049 0.188 0 0.069-0.016 0.132-0.049 0.186s-0.079 0.096-0.137 0.128c-0.058 0.031-0.124 0.047-0.198 0.047zM15.989 20.037c0.034 0 0.064-0.008 0.091-0.023s0.048-0.038 0.064-0.066c0.016-0.030 0.023-0.064 0.023-0.104s-0.008-0.076-0.023-0.104-0.037-0.051-0.064-0.066c-0.027-0.016-0.057-0.023-0.091-0.023s-0.064 0.008-0.091 0.023c-0.027 0.016-0.049 0.038-0.065 0.066s-0.023 0.063-0.023 0.104c0 0.040 0.008 0.075 0.023 0.104s0.038 0.051 0.065 0.066c0.027 0.016 0.057 0.023 0.091 0.023zM16.518 20.193v-0.701h0.194v0.198l-0.027-0.057c0.021-0.049 0.054-0.087 0.1-0.112s0.102-0.039 0.168-0.039v0.188c-0.009-0.001-0.017-0.001-0.023-0.001s-0.014-0.001-0.022-0.001c-0.056 0-0.101 0.016-0.136 0.048s-0.051 0.080-0.051 0.147v0.331h-0.203zM17.393 20.204c-0.083 0-0.147-0.021-0.193-0.063s-0.069-0.106-0.069-0.189v-0.615h0.203v0.612c0 0.030 0.008 0.053 0.023 0.069s0.037 0.023 0.064 0.023c0.032 0 0.059-0.009 0.082-0.026l0.055 0.143c-0.021 0.015-0.046 0.026-0.076 0.034s-0.059 0.010-0.090 0.010zM17.023 19.664v-0.156h0.486v0.156h-0.486z"></path>
<path fill="#fff" style="fill: var(--color3, #fff)" d="M8.902 24.113c-0.062 0-0.121-0.009-0.179-0.026s-0.102-0.041-0.136-0.070l0.051-0.115c0.033 0.026 0.073 0.047 0.12 0.064s0.096 0.024 0.144 0.024c0.059 0 0.103-0.010 0.132-0.029s0.044-0.044 0.044-0.075c0-0.023-0.008-0.041-0.025-0.056s-0.036-0.027-0.062-0.035-0.059-0.018-0.103-0.029c-0.061-0.014-0.11-0.029-0.148-0.043s-0.070-0.037-0.097-0.067c-0.027-0.031-0.040-0.073-0.040-0.125 0-0.044 0.012-0.084 0.035-0.12s0.060-0.065 0.108-0.087c0.049-0.021 0.108-0.032 0.178-0.032 0.049 0 0.097 0.006 0.144 0.018s0.088 0.030 0.122 0.052l-0.047 0.115c-0.035-0.021-0.071-0.036-0.109-0.047s-0.075-0.016-0.111-0.016c-0.058 0-0.102 0.010-0.131 0.030s-0.042 0.046-0.042 0.079c0 0.023 0.008 0.041 0.024 0.056s0.038 0.026 0.063 0.034 0.059 0.018 0.103 0.029c0.059 0.014 0.108 0.028 0.146 0.043s0.070 0.037 0.097 0.067c0.027 0.030 0.041 0.071 0.041 0.123 0 0.044-0.012 0.084-0.036 0.12s-0.060 0.064-0.108 0.085c-0.049 0.021-0.108 0.032-0.178 0.032zM9.964 23.493v0.609h-0.136v-0.078c-0.023 0.027-0.051 0.049-0.085 0.064s-0.071 0.022-0.111 0.022c-0.081 0-0.146-0.022-0.193-0.067s-0.070-0.113-0.070-0.202v-0.348h0.143v0.328c0 0.055 0.012 0.096 0.036 0.123s0.060 0.040 0.106 0.040c0.051 0 0.091-0.016 0.121-0.047s0.046-0.078 0.046-0.137v-0.308h0.143zM10.504 23.486c0.059 0 0.112 0.013 0.158 0.039s0.084 0.062 0.111 0.109c0.027 0.047 0.040 0.101 0.040 0.163s-0.013 0.116-0.040 0.164c-0.027 0.047-0.063 0.084-0.111 0.109s-0.099 0.039-0.158 0.039c-0.042 0-0.080-0.007-0.115-0.022s-0.063-0.036-0.087-0.065v0.079h-0.136v-0.846h0.143v0.311c0.024-0.027 0.053-0.047 0.085-0.060s0.070-0.021 0.109-0.021zM10.488 23.988c0.052 0 0.095-0.017 0.129-0.052s0.051-0.081 0.051-0.138-0.017-0.103-0.051-0.138c-0.033-0.035-0.076-0.052-0.129-0.052-0.034 0-0.065 0.008-0.092 0.024s-0.049 0.037-0.065 0.066-0.024 0.062-0.024 0.1c0 0.038 0.008 0.071 0.024 0.1s0.038 0.051 0.065 0.067c0.027 0.015 0.058 0.023 0.092 0.023zM11.733 23.486c0.077 0 0.138 0.022 0.182 0.067s0.067 0.111 0.067 0.2v0.349h-0.143v-0.331c0-0.053-0.012-0.093-0.035-0.12s-0.057-0.041-0.101-0.041c-0.048 0-0.086 0.016-0.115 0.048s-0.043 0.076-0.043 0.134v0.309h-0.143v-0.331c0-0.053-0.012-0.093-0.035-0.12s-0.057-0.041-0.101-0.041c-0.049 0-0.087 0.016-0.116 0.047s-0.042 0.076-0.042 0.136v0.309h-0.143v-0.609h0.136v0.078c0.023-0.027 0.051-0.048 0.085-0.063s0.072-0.022 0.114-0.022c0.046 0 0.086 0.009 0.121 0.026s0.064 0.042 0.084 0.075c0.025-0.032 0.057-0.057 0.097-0.074s0.083-0.027 0.131-0.027zM12.181 23.493h0.143v0.609h-0.143v-0.609zM12.253 23.393c-0.026 0-0.047-0.008-0.065-0.024s-0.026-0.037-0.026-0.062 0.009-0.044 0.026-0.060c0.018-0.017 0.039-0.025 0.065-0.025s0.048 0.008 0.065 0.024c0.018 0.015 0.026 0.035 0.026 0.058 0 0.025-0.009 0.046-0.026 0.064s-0.038 0.025-0.065 0.025zM12.893 24.069c-0.017 0.014-0.037 0.024-0.062 0.031s-0.049 0.010-0.075 0.010c-0.067 0-0.119-0.017-0.155-0.052s-0.055-0.086-0.055-0.153v-0.293h-0.1v-0.114h0.1v-0.139h0.143v0.139h0.163v0.114h-0.163v0.29c0 0.030 0.007 0.052 0.022 0.068s0.035 0.023 0.063 0.023c0.032 0 0.059-0.008 0.080-0.025l0.040 0.101zM13.893 24.102l-0.163-0.234c-0.007 0.001-0.017 0.001-0.031 0.001h-0.18v0.233h-0.148v-0.798h0.328c0.069 0 0.129 0.011 0.18 0.034s0.091 0.055 0.119 0.098 0.041 0.093 0.041 0.152c0 0.060-0.015 0.112-0.044 0.155s-0.071 0.076-0.125 0.097l0.184 0.262h-0.16zM13.89 23.588c0-0.051-0.017-0.090-0.050-0.117s-0.082-0.041-0.147-0.041h-0.173v0.318h0.173c0.065 0 0.114-0.014 0.147-0.041s0.050-0.068 0.050-0.119zM14.78 23.801c0 0.010-0.001 0.024-0.002 0.042h-0.478c0.008 0.045 0.030 0.081 0.065 0.107s0.080 0.039 0.132 0.039c0.067 0 0.122-0.022 0.165-0.066l0.076 0.088c-0.027 0.033-0.062 0.057-0.104 0.074s-0.089 0.025-0.141 0.025c-0.067 0-0.126-0.013-0.177-0.040s-0.090-0.063-0.119-0.111c-0.027-0.048-0.041-0.102-0.041-0.162s0.013-0.112 0.040-0.16c0.027-0.048 0.065-0.085 0.113-0.112s0.102-0.040 0.162-0.040c0.059 0 0.112 0.013 0.158 0.040s0.084 0.063 0.109 0.111c0.027 0.047 0.040 0.102 0.040 0.164zM14.472 23.6c-0.046 0-0.084 0.014-0.116 0.041s-0.050 0.062-0.057 0.107h0.345c-0.006-0.044-0.025-0.080-0.056-0.107s-0.070-0.041-0.116-0.041zM15.528 23.493v0.83h-0.143v-0.295c-0.048 0.055-0.113 0.082-0.195 0.082-0.059 0-0.112-0.013-0.16-0.039s-0.083-0.062-0.109-0.109c-0.026-0.047-0.039-0.102-0.039-0.164s0.013-0.116 0.040-0.163 0.063-0.084 0.109-0.109c0.046-0.026 0.099-0.039 0.158-0.039 0.042 0 0.080 0.007 0.114 0.022s0.064 0.036 0.088 0.065v-0.080h0.136zM15.207 23.988c0.052 0 0.096-0.017 0.13-0.052s0.051-0.081 0.051-0.138c0-0.057-0.017-0.103-0.051-0.138s-0.078-0.052-0.13-0.052c-0.052 0-0.096 0.017-0.13 0.052s-0.050 0.081-0.050 0.138 0.017 0.103 0.050 0.138c0.034 0.035 0.078 0.052 0.13 0.052zM16.32 23.493v0.609h-0.136v-0.078c-0.023 0.027-0.051 0.049-0.085 0.064s-0.071 0.022-0.111 0.022c-0.081 0-0.146-0.022-0.193-0.067s-0.070-0.113-0.070-0.202v-0.348h0.143v0.328c0 0.055 0.012 0.096 0.036 0.123s0.060 0.040 0.106 0.040c0.051 0 0.091-0.016 0.121-0.047s0.046-0.078 0.046-0.137v-0.308h0.142zM17.095 23.801c0 0.010-0.001 0.024-0.002 0.042h-0.478c0.008 0.045 0.030 0.081 0.065 0.107s0.080 0.039 0.132 0.039c0.067 0 0.122-0.022 0.165-0.066l0.076 0.088c-0.027 0.033-0.062 0.057-0.104 0.074s-0.089 0.025-0.141 0.025c-0.067 0-0.126-0.013-0.177-0.040s-0.090-0.063-0.119-0.111c-0.027-0.048-0.041-0.102-0.041-0.162s0.013-0.112 0.040-0.16c0.027-0.048 0.065-0.085 0.113-0.112s0.102-0.040 0.162-0.040c0.059 0 0.112 0.013 0.158 0.040s0.084 0.063 0.109 0.111c0.027 0.047 0.040 0.102 0.040 0.164zM16.787 23.6c-0.046 0-0.084 0.014-0.116 0.041s-0.050 0.062-0.057 0.107h0.345c-0.006-0.044-0.025-0.080-0.056-0.107s-0.070-0.041-0.116-0.041zM17.436 24.11c-0.049 0-0.098-0.006-0.145-0.019s-0.085-0.029-0.113-0.049l0.055-0.108c0.027 0.018 0.060 0.033 0.098 0.044s0.077 0.016 0.114 0.016c0.085 0 0.128-0.022 0.128-0.067 0-0.021-0.011-0.036-0.033-0.044s-0.056-0.016-0.104-0.024c-0.050-0.008-0.091-0.016-0.123-0.026s-0.059-0.027-0.082-0.051c-0.023-0.025-0.034-0.060-0.034-0.104 0-0.058 0.024-0.104 0.072-0.138s0.114-0.052 0.196-0.052c0.042 0 0.084 0.005 0.125 0.015s0.076 0.022 0.103 0.038l-0.055 0.108c-0.052-0.030-0.11-0.046-0.174-0.046-0.042 0-0.074 0.006-0.096 0.019s-0.032 0.029-0.032 0.049c0 0.023 0.011 0.039 0.034 0.049s0.060 0.018 0.108 0.026c0.049 0.008 0.088 0.016 0.12 0.026s0.058 0.027 0.080 0.050c0.023 0.024 0.034 0.057 0.034 0.1 0 0.057-0.025 0.103-0.074 0.137s-0.117 0.051-0.202 0.051zM18.217 24.069c-0.017 0.014-0.037 0.024-0.062 0.031s-0.049 0.010-0.075 0.010c-0.067 0-0.119-0.017-0.155-0.052s-0.055-0.086-0.055-0.153v-0.293h-0.1v-0.114h0.1v-0.139h0.142v0.139h0.163v0.114h-0.163v0.29c0 0.030 0.007 0.052 0.022 0.068s0.035 0.023 0.063 0.023c0.032 0 0.059-0.008 0.080-0.025l0.040 0.101z"></path>
</symbol>
</defs>
</svg>
